<svg width="167" height="27" viewBox="0 0 167 27" fill="none" xmlns="http://www.w3.org/2000/svg">
<path d="M12.0853 3.18966C12.3851 2.26938 13.687 2.26938 13.9869 3.18966L15.738 8.56406C15.8721 8.97568 16.2559 9.25426 16.6888 9.25426H22.3495C23.3189 9.25426 23.7213 10.4953 22.9363 11.0641L18.3614 14.3787C18.0099 14.6333 17.8629 15.0856 17.9973 15.4983L19.7459 20.8649C20.0459 21.7858 18.9926 22.5527 18.2084 21.9845L13.6228 18.6621C13.2728 18.4085 12.7994 18.4085 12.4494 18.6621L7.86382 21.9845C7.07956 22.5527 6.02627 21.7858 6.3263 20.8649L8.07487 15.4983C8.20932 15.0856 8.06224 14.6333 7.71078 14.3787L3.13591 11.0641C2.3509 10.4953 2.75323 9.25426 3.72263 9.25426H9.38338C9.81631 9.25426 10.2001 8.97568 10.3342 8.56406L12.0853 3.18966Z" fill="black"/>
<path d="M47.1827 3.18966C47.4825 2.26938 48.7845 2.26938 49.0843 3.18966L50.8354 8.56406C50.9695 8.97568 51.3533 9.25426 51.7862 9.25426H57.447C58.4164 9.25426 58.8187 10.4953 58.0337 11.0641L53.4588 14.3787C53.1073 14.6333 52.9603 15.0856 53.0947 15.4983L54.8433 20.8649C55.1433 21.7858 54.09 22.5527 53.3058 21.9845L48.7202 18.6621C48.3702 18.4085 47.8968 18.4085 47.5468 18.6621L42.9612 21.9845C42.177 22.5527 41.1237 21.7858 41.4237 20.8649L43.1723 15.4983C43.3067 15.0856 43.1597 14.6333 42.8082 14.3787L38.2333 11.0641C37.4483 10.4953 37.8506 9.25426 38.82 9.25426H44.4808C44.9137 9.25426 45.2975 8.97568 45.4316 8.56406L47.1827 3.18966Z" fill="black"/>
<path d="M82.2799 3.18966C82.5797 2.26938 83.8816 2.26938 84.1815 3.18966L85.9326 8.56406C86.0667 8.97568 86.4504 9.25426 86.8834 9.25426H92.5441C93.5135 9.25426 93.9158 10.4953 93.1308 11.0641L88.556 14.3787C88.2045 14.6333 88.0574 15.0856 88.1919 15.4983L89.9405 20.8649C90.2405 21.7858 89.1872 22.5527 88.4029 21.9845L83.8174 18.6621C83.4673 18.4085 82.994 18.4085 82.6439 18.6621L78.0584 21.9845C77.2741 22.5527 76.2209 21.7858 76.5209 20.8649L78.2694 15.4983C78.4039 15.0856 78.2568 14.6333 77.9054 14.3787L73.3305 11.0641C72.5455 10.4953 72.9478 9.25426 73.9172 9.25426H79.578C80.0109 9.25426 80.3946 8.97568 80.5288 8.56406L82.2799 3.18966Z" fill="black"/>
<path d="M117.377 3.18966C117.677 2.26938 118.979 2.26938 119.279 3.18966L121.03 8.56406C121.164 8.97568 121.548 9.25426 121.981 9.25426H127.641C128.611 9.25426 129.013 10.4953 128.228 11.0641L123.653 14.3787C123.302 14.6333 123.155 15.0856 123.289 15.4983L125.038 20.8649C125.338 21.7858 124.284 22.5527 123.5 21.9845L118.915 18.6621C118.565 18.4085 118.091 18.4085 117.741 18.6621L113.156 21.9845C112.371 22.5527 111.318 21.7858 111.618 20.8649L113.367 15.4983C113.501 15.0856 113.354 14.6333 113.003 14.3787L108.428 11.0641C107.643 10.4953 108.045 9.25426 109.014 9.25426H114.675C115.108 9.25426 115.492 8.97568 115.626 8.56406L117.377 3.18966Z" fill="black"/>
<path d="M152.474 3.18966C152.774 2.26938 154.076 2.26938 154.376 3.18966L156.127 8.56406C156.261 8.97568 156.645 9.25426 157.077 9.25426H162.738C163.708 9.25426 164.11 10.4953 163.325 11.0641L158.75 14.3787C158.399 14.6333 158.252 15.0856 158.386 15.4983L160.135 20.8649C160.435 21.7858 159.381 22.5527 158.597 21.9845L154.011 18.6621C153.661 18.4085 153.188 18.4085 152.838 18.6621L148.252 21.9845C147.468 22.5527 146.415 21.7858 146.715 20.8649L148.464 15.4983C148.598 15.0856 148.451 14.6333 148.099 14.3787L143.525 11.0641C142.74 10.4953 143.142 9.25426 144.111 9.25426H149.772C150.205 9.25426 150.589 8.97568 150.723 8.56406L152.474 3.18966Z" fill="#E5E5E5"/>
</svg>
